<svg width="120" height="120" viewBox="0 0 120 120" fill="none" xmlns="http://www.w3.org/2000/svg">
  <path d="M32 92C34.7614 92 37 89.7614 37 87C37 84.2386 34.7614 82 32 82C29.2386 82 27 84.2386 27 87C27 89.7614 29.2386 92 32 92Z" fill="#4684e2"/>
  <path d="M80 92C82.7614 92 85 89.7614 85 87C85 84.2386 82.7614 82 80 82C77.2386 82 75 84.2386 75 87C75 89.7614 77.2386 92 80 92Z" fill="#4684e2"/>
  <path d="M96.4 32H26.8L24 18H10" stroke="#4684e2" stroke-width="4" stroke-linecap="round" stroke-linejoin="round"/>
  <path d="M30 42L36 72H80L90 42H30Z" stroke="#4684e2" stroke-width="4" stroke-linecap="round" stroke-linejoin="round"/>
  <path d="M60 22V52" stroke="#8c8c8c" stroke-width="4" stroke-linecap="round" stroke-linejoin="round"/>
  <path d="M45 37H75" stroke="#8c8c8c" stroke-width="4" stroke-linecap="round" stroke-linejoin="round"/>
</svg> 